<svg width="280" height="280" viewBox="0 0 280 280" fill="none" xmlns="http://www.w3.org/2000/svg">
<g clip-path="url(#clip0)">
<mask id="mask0" mask-type="alpha" maskUnits="userSpaceOnUse" x="-40" y="-40" width="320" height="320">
<rect x="-40" y="-40" width="320" height="320" fill="#C4C4C4"/>
</mask>
<g mask="url(#mask0)">
<path d="M174.512 95.0151L173.63 81.7109L77.84 88.0593L78.7217 101.363L174.512 95.0151Z" fill="white" stroke="black" stroke-opacity="0.1" stroke-miterlimit="10"/>
<path d="M130.134 76.3807C130.134 76.3807 109.003 66.6923 101.987 64.0953C94.9181 61.4134 90.2379 60.311 89.3912 62.3636C88.5121 64.5538 97.0137 69.1715 97.0137 69.1715C97.0137 69.1715 114.577 73.4892 115.18 73.704" fill="white"/>
<path d="M130.134 76.3807C130.134 76.3807 109.003 66.6923 101.987 64.0953C94.9181 61.4134 90.2379 60.311 89.3912 62.3636C88.5121 64.5538 97.0137 69.1715 97.0137 69.1715C97.0137 69.1715 114.577 73.4892 115.18 73.704" stroke="black" stroke-opacity="0.1" stroke-miterlimit="10"/>
<path d="M87.2334 75.7867C87.2334 75.7867 76.5815 73.4854 78.6532 69.4637C81.3992 64.898 101.91 70.0529 101.91 70.0529L122.204 73.2387" fill="white"/>
<path d="M87.2334 75.7867C87.2334 75.7867 76.5815 73.4854 78.6532 69.4637C81.3992 64.898 101.91 70.0529 101.91 70.0529L122.204 73.2387" stroke="black" stroke-opacity="0.1" stroke-miterlimit="10"/>
<path d="M119.3 74.3671C116.407 74.0608 113.132 73.9903 109.438 74.2647C87.6392 75.8844 78.2013 76.1696 76.4021 76.4521C71.6908 77.1919 69.6106 80.7748 74.7595 81.911L94.9696 84.4184" fill="white"/>
<path d="M119.3 74.3671C116.407 74.0608 113.132 73.9903 109.438 74.2647C87.6392 75.8844 78.2013 76.1696 76.4021 76.4521C71.6908 77.1919 69.6106 80.7748 74.7595 81.911L94.9696 84.4184" stroke="black" stroke-opacity="0.1" stroke-miterlimit="10"/>
<path d="M143.279 83.7218C143.279 83.7218 133.444 75.2898 119.262 73.7883C119.262 73.7883 112.05 72.0113 101.235 78.8665C90.4209 85.7216 86.595 88.4806 86.595 88.4806C86.595 88.4806 82.9186 91.6056 87.8325 92.0316C92.7464 92.4576 101.42 89.1267 104.514 86.6667" fill="white"/>
<path d="M143.279 83.7218C143.279 83.7218 133.444 75.2898 119.262 73.7883C119.262 73.7883 112.05 72.0113 101.235 78.8665C90.4209 85.7216 86.595 88.4806 86.595 88.4806C86.595 88.4806 82.9186 91.6056 87.8325 92.0316C92.7464 92.4576 101.42 89.1267 104.514 86.6667" stroke="black" stroke-opacity="0.1" stroke-miterlimit="10"/>
<path d="M191.787 343.082C191.787 343.082 229.086 304.782 224.225 231.443C218.423 143.885 158.38 96.0842 158.38 96.0842L118.08 96.667L94.4005 94.7287C94.4005 94.7287 84.0478 95.6654 91.9238 101.908C91.9238 101.908 106.524 107.2 114.716 110.169C122.908 113.138 179.321 157.5 184.567 236.66C184.567 236.66 187.684 288.735 157.038 325.341" fill="white"/>
<path d="M191.787 343.082C191.787 343.082 229.086 304.782 224.225 231.443C218.423 143.885 158.38 96.0842 158.38 96.0842L118.08 96.667L94.4005 94.7287C94.4005 94.7287 84.0478 95.6654 91.9238 101.908C91.9238 101.908 106.524 107.2 114.716 110.169C122.908 113.138 179.321 157.5 184.567 236.66C184.567 236.66 187.684 288.735 157.038 325.341" stroke="black" stroke-opacity="0.1" stroke-miterlimit="10"/>
<path d="M52.7449 96.4035L78.7216 101.363L78.2807 94.7112L77.8398 88.0591L52.7449 96.4035Z" fill="white" stroke="black" stroke-opacity="0.1" stroke-miterlimit="10"/>
<path d="M63.668 93.1753L64.0012 98.2033L54.371 96.3165L63.668 93.1753Z" fill="#D9BAE8"/>
<path d="M56.3142 96.1877L63.2121 93.8571L63.4593 97.5876L56.3142 96.1877Z" stroke="black" stroke-opacity="0.1"/>
<path d="M104.365 86.3014L173.63 81.7109" stroke="black" stroke-opacity="0.1" stroke-miterlimit="10"/>
</g>
</g>
<defs>
<clipPath id="clip0">
<rect width="280" height="280" fill="white"/>
</clipPath>
</defs>
</svg>
