<svg width="171" height="24" viewBox="0 0 171 24" fill="currentColor" xmlns="http://www.w3.org/2000/svg">
<g clip-path="url(#clip0)">
<path d="M168.985 7.06508C168.07 7.06508 167.295 7.73134 167.295 8.63189C167.295 9.53976 168.07 10.206 168.985 10.206C169.892 10.206 170.667 9.53976 170.667 8.63189C170.667 7.73134 169.892 7.06508 168.985 7.06508ZM168.985 9.95709C168.21 9.95709 167.613 9.40065 167.613 8.63189C167.613 7.88509 168.21 7.32133 168.985 7.32133C169.745 7.32133 170.342 7.88509 170.342 8.63189C170.342 9.40065 169.745 9.95709 168.985 9.95709ZM169.752 8.25117C169.752 7.89241 169.528 7.73134 169.07 7.73134H168.334V9.54708H168.628V8.75636H168.962L169.473 9.54708H169.799L169.248 8.74903C169.535 8.71975 169.752 8.57332 169.752 8.25117ZM168.628 8.52939V7.96563H169.031C169.365 7.96563 169.458 8.06081 169.458 8.23653C169.458 8.43421 169.341 8.52939 168.985 8.52939H168.628ZM75.8876 11.2896C75.8876 17.9669 78.1745 21.1883 81.1126 21.1298C82.5468 21.1298 83.7794 19.746 84.6632 17.9376C85.5857 16.0633 85.9268 15.807 86.64 15.7777C87.2525 15.7777 87.5625 16.1658 87.5625 16.6783C87.5625 17.3592 87.2912 18.0986 86.9811 18.9699C86.3687 20.7783 86.2602 21.7082 85.8183 22.9382C85.6167 23.4873 85.1671 23.6191 84.7562 23.6484C84.3841 23.6484 83.9035 23.4873 83.4926 22.8723C82.5701 23.5166 81.7871 23.9046 80.0118 23.9339C75.5387 23.9998 71.0967 19.7094 71.0967 12.1975C71.0967 5.68131 75.5 0.102297 81.2367 0.00711672C83.1127 -0.0221694 84.4151 0.461052 85.9811 1.3616C86.6633 0.812486 86.9734 0.490338 87.6168 0.490338C88.299 0.490338 88.5006 0.97356 88.5006 1.29571C88.5006 2.13036 88.0199 2.55501 87.547 3.71182C87.0354 4.93451 87.0044 5.80578 86.8648 6.42078C86.6633 7.19687 86.3532 8.09742 85.5314 8.09742C84.8492 8.09742 84.4694 7.64348 84.4694 7.03579L84.4384 5.45434C84.4074 3.68253 83.3143 2.45251 81.1902 2.48912C78.2443 2.54769 75.8876 6.06203 75.8876 11.2896ZM155.085 8.58064C155.085 9.96441 154.062 10.8357 153.038 10.8357C152.356 10.8357 151.876 10.4842 151.263 10.4842C149.519 10.4842 148.837 13.098 148.767 15.4482L148.736 20.0315C148.736 20.8735 149.317 21.2542 150.1 21.5178C150.782 21.7448 151.635 21.8692 151.635 22.6819C151.635 23.1359 151.496 23.5166 150.953 23.5166C150.131 23.5166 148.767 23.3555 147.503 23.3555H146.139C144.736 23.3555 141.666 23.4214 139.821 23.4214C138.898 23.4214 137.976 23.4507 137.294 23.5166C136.2 23.5166 136.27 22.843 136.27 20.2951L136.239 15.9095C135.759 15.9095 135.386 15.9754 135.115 16.0413C133.41 16.3634 132.107 17.7179 132.107 19.1383C132.107 20.6246 132.991 21.364 134.704 21.2323C135.286 21.1664 135.487 21.2615 135.487 21.5251C135.487 22.9162 133.472 23.9119 131.968 23.9119C129.82 23.9119 127.936 22.3012 127.936 19.9144C127.936 16.8174 130.534 14.4672 135.208 13.8814C135.479 13.8521 135.751 13.8155 136.231 13.8155V13.303C136.231 10.206 135.619 9.17368 134.115 9.17368C132.782 9.17368 132.099 9.84727 131.518 11.2091C131.146 12.1096 130.797 13.1127 129.983 13.1127C129.332 13.1127 129.03 12.6587 129.03 11.7875C129.03 10.7551 129.44 9.69351 129.44 8.66118V7.78991C129.44 7.2408 129.851 7.01383 130.223 7.01383C130.533 7.01383 131.076 7.2408 131.658 7.59223C132.58 7.07972 133.572 6.65507 134.968 6.65507C137.084 6.65507 138.557 7.48973 139.34 8.91011C140.022 10.1328 140.232 11.7802 140.232 13.6838V16.5904C140.162 21.203 140.914 21.7814 142.519 21.7814C143.782 21.7814 144.906 20.9101 144.906 19.7826L144.836 11.846C144.836 11.1066 144.356 10.3598 142.48 10.1694C141.968 10.1035 141.728 9.75208 141.728 9.33476C141.728 8.94672 141.898 8.59528 142.441 8.49278C146.573 7.68741 146.263 6.81615 147.527 6.81615C148.108 6.81615 148.48 7.16758 148.48 7.7533C148.48 8.10474 148.41 8.65385 148.41 10.2353V10.9089C149.434 7.74598 151.108 6.42811 152.914 6.42811C154.225 6.42078 155.085 7.38723 155.085 8.58064ZM166.628 18.8381C166.628 21.3567 164.613 23.9046 160.721 23.9046C159.426 23.9046 158.163 23.5532 157.07 23.0041C156.457 23.4873 156.008 23.6777 155.806 23.6777C155.124 23.6777 154.953 23.0334 154.953 22.3232C154.953 21.3567 154.953 20.6758 154.814 20.134C154.674 19.4897 154.473 19.0358 154.473 18.4208C154.473 17.6813 154.883 17.2567 155.496 17.2567C156.008 17.2567 156.248 17.4836 156.589 18.2597C157.651 20.8076 158.907 21.613 160.651 21.613C162.186 21.613 162.977 20.8369 162.977 20.0974C162.977 19.0358 162.054 18.3915 160.891 17.7765L159.659 17.1322C155.938 15.1627 155.186 13.9693 155.186 11.846C155.186 9.23225 157.341 6.87472 160.481 6.87472C161.535 6.87472 162.496 7.10169 163.45 7.7167C163.861 7.32866 164.101 7.0724 164.473 7.0724C164.845 7.0724 165.295 7.29937 165.295 7.81188V8.84421C165.295 9.90584 165.667 10.9748 165.667 11.9412C165.667 12.6148 165.396 13.0687 164.775 13.0687C164.023 13.0687 163.682 12.5196 163.07 11.2969C162.457 10.1987 161.775 9.00529 160.403 9.00529C159.45 9.00529 158.628 9.58369 158.628 10.6819C158.628 11.458 158.938 12.0657 160.233 12.7466L161.938 13.6471C164.403 14.965 166.628 16.0633 166.628 18.8381ZM103.005 22.5501C103.005 23.0041 102.804 23.5166 102.292 23.5166C102.052 23.5166 100.997 23.4214 100.245 23.4214C99.2918 23.4214 98.3692 23.4873 97.7181 23.5166C96.625 23.5166 96.6947 22.843 96.6947 20.2951L96.6637 15.9095C96.1521 15.9095 95.78 15.9754 95.5009 16.0413C93.7954 16.3634 92.5318 17.7545 92.5318 19.1383C92.5318 20.6246 93.3845 21.3933 95.1288 21.2323C95.7102 21.1664 95.9118 21.2615 95.9118 21.5251C95.9118 22.9162 93.8962 23.9119 92.3922 23.9119C90.2061 23.9119 88.361 22.3012 88.361 19.9144C88.361 16.854 90.9193 14.4964 95.6327 13.8814C95.904 13.8521 96.1753 13.8155 96.656 13.8155V13.303C96.656 10.206 96.0048 9.17368 94.5396 9.17368C93.1752 9.17368 92.524 9.88387 91.9426 11.2091C91.5705 12.1096 91.2294 13.1127 90.4076 13.1127C89.7564 13.1127 89.4541 12.6587 89.4541 11.7875C89.4541 10.7551 89.8262 9.69351 89.8262 8.66118V7.78991C89.8262 7.2408 90.2681 7.01383 90.6092 7.01383C90.9503 7.01383 91.462 7.2408 92.0434 7.59223C92.9659 7.10901 93.9892 6.65507 95.3924 6.65507C97.5475 6.65507 98.9817 7.52634 99.7957 8.94672C100.478 10.1694 100.648 11.7875 100.648 13.6911V16.5611C100.648 20.8149 101.16 21.4958 102.393 21.7887C102.897 21.8985 103.005 22.1914 103.005 22.5501ZM110.858 13.1273C111.029 12.9662 111.029 12.6734 111.029 12.3219C111.029 10.7112 110.176 9.15904 108.843 9.15904C107.439 9.15904 106.315 10.8064 106.315 13.7716V14.2548C106.315 19.4458 108.672 20.8662 110.277 20.8662C111.54 20.8662 112.153 20.544 112.664 20.0608C113.075 19.7094 113.316 19.2554 113.858 19.2554C114.339 19.2554 114.51 19.5776 114.51 19.9656C114.51 21.7374 112.254 23.9998 109.215 23.9998C104.672 23.9998 102.145 20.1926 102.145 15.58C102.145 10.4183 105.525 6.87472 109.145 6.87472C112.866 6.87472 114.68 9.64958 114.68 13.3616C114.68 14.1011 114.649 14.6502 114.37 15.0089C113.928 15.5581 113.308 15.5581 111.874 15.5581H108.323C107.711 15.5581 107.3 15.3018 107.3 14.7527C107.3 13.918 107.881 13.6911 109.075 13.5593C110.308 13.3836 110.649 13.325 110.858 13.1273ZM127.177 18.8381C127.177 21.3567 125.262 23.9046 121.611 23.9046C120.347 23.9046 119.114 23.5532 118.06 23.0041C117.448 23.4873 116.998 23.6777 116.796 23.6777C116.114 23.6777 115.944 23.0334 115.944 22.3232C115.944 21.3567 115.944 20.6758 115.804 20.134C115.665 19.4897 115.463 19.0358 115.463 18.4208C115.463 17.6813 115.874 17.2567 116.486 17.2567C116.998 17.2567 117.238 17.4836 117.579 18.2597C118.641 20.8076 119.835 21.613 121.541 21.613C122.835 21.613 123.518 20.8369 123.518 20.0974C123.518 18.9992 122.626 18.289 121.432 17.7106L120.269 17.1322C116.378 15.2652 115.657 13.9693 115.657 11.846C115.657 9.23225 117.843 6.87472 121.021 6.87472C122.084 6.87472 123.037 7.10169 123.991 7.7167C124.401 7.32866 124.642 7.0724 125.014 7.0724C125.386 7.0724 125.836 7.29937 125.836 7.81188V8.84421C125.836 9.90584 126.208 10.9748 126.208 11.9412C126.208 12.6148 125.936 13.0687 125.324 13.0687C124.572 13.0687 124.231 12.5196 123.618 11.2969C123.006 10.1987 122.324 9.00529 120.952 9.00529C119.959 9.00529 119.107 9.58369 119.107 10.6819C119.107 11.458 119.417 12.0657 120.781 12.7466L122.487 13.5812C124.998 14.8698 127.177 16.034 127.177 18.8381Z" />
<path d="M19.8457 3.29508C19.8457 2.07239 20.9698 1.06934 22.3419 1.06934C23.7451 1.06934 24.8382 2.07239 24.8382 3.29508C24.8382 4.51778 23.7451 5.49154 22.3419 5.49154C20.9698 5.48422 19.8457 4.51778 19.8457 3.29508Z" />
<path d="M3.20945 18.6613V4.72843C3.20945 2.20982 0.17055 2.82483 0.17055 1.2141C0.17055 0.862661 0.441881 0.503906 0.883761 0.503906C1.46518 0.503906 3.0389 0.694266 5.21729 0.694266H5.73669C7.92284 0.694266 9.79889 0.503906 10.0702 0.503906C10.5121 0.503906 10.7834 0.85534 10.7834 1.2141C10.7834 2.82483 7.64376 2.21715 7.64376 4.69915L7.58174 18.7565C7.55073 20.4331 8.47325 20.7553 10.2485 20.7553H11.5122C12.7448 20.7553 13.7991 20.0451 14.4813 18.9469L15.8457 16.7211C16.3883 15.8865 16.7992 15.7181 17.1791 15.7181C17.8613 15.7181 18.0706 16.2306 18.0706 16.6845C18.0706 17.5558 17.1481 19.1372 16.6054 20.9383C16.2953 21.9706 16.4038 22.7467 16.2643 23.3251C16.1945 23.7132 15.9232 23.8742 15.4116 23.8742C14.52 23.8742 13.1556 23.2299 8.55078 23.2299H7.38793C5.27156 23.2299 3.18619 23.4862 1.13959 23.4862C0.0310092 23.5008 0 22.9151 0 22.5344C0 20.953 3.20945 21.8242 3.20945 18.6613Z" />
<path d="M17.3105 9.3858C17.3105 8.99776 17.4501 8.67561 18.0625 8.54382C22.5356 7.64327 22.2255 6.86719 23.6287 6.86719C24.1093 6.86719 24.4116 7.21862 24.4116 7.83363C24.4116 8.15578 24.3419 8.70489 24.3419 10.2863L24.2721 20.024C24.2721 20.9245 24.8845 21.3492 25.6365 21.5688C26.2877 21.7958 27.1017 21.9569 27.1017 22.733C27.1017 23.1503 26.9621 23.509 26.4893 23.509C25.6675 23.509 24.3031 23.348 23.0705 23.348H21.7061C20.4735 23.348 19.1091 23.509 18.2873 23.509C17.7757 23.509 17.6361 23.1576 17.6361 22.733C17.6361 22.0228 18.2873 21.8324 18.9308 21.6347C19.6517 21.4078 20.4657 20.9904 20.4657 20.024L20.396 11.8971C20.3649 11.0917 19.8843 10.2497 18.0393 10.0594C17.5509 10.0008 17.3105 9.74455 17.3105 9.3858Z" />
<path d="M53.2422 15.5803C53.2422 10.4186 56.6222 6.875 60.2425 6.875C63.9636 6.875 65.7777 9.64986 65.7777 13.3546C65.7777 14.094 65.7466 14.6431 65.4676 15.0019C65.0257 15.551 64.4055 15.551 62.9713 15.551H59.4208C58.8083 15.551 58.3975 15.2948 58.3975 14.7457C58.3975 13.9037 58.9789 13.684 60.1727 13.5522C61.4054 13.3912 61.7465 13.3253 61.948 13.1349C62.1186 12.9738 62.1186 12.681 62.1186 12.3295C62.1186 10.7188 61.2658 9.16664 59.9324 9.16664C58.5293 9.16664 57.4052 10.814 57.4052 13.7792V14.2624C57.4052 19.4534 59.7619 20.8738 61.3666 20.8738C62.6302 20.8738 63.2427 20.5516 63.7543 20.0684C64.1652 19.717 64.4055 19.263 64.9482 19.263C65.4288 19.263 65.5994 19.5852 65.5994 19.9732C65.5994 21.745 63.3434 24.0074 60.3045 24.0074C55.7694 24.0001 53.2422 20.1929 53.2422 15.5803Z" />
<path d="M44.4287 2.90681C44.4287 2.51876 44.5682 2.19662 45.1807 2.07215C49.6848 1.20089 49.7545 0.424805 50.7856 0.424805C51.2275 0.424805 51.4988 0.776239 51.4988 1.36196C51.4988 1.68411 51.4678 2.23322 51.4678 3.81468L51.398 20.0319C51.398 20.9032 51.9794 21.2912 52.7624 21.5182C53.4136 21.7451 54.2276 21.9721 54.2276 22.8067C54.2276 23.2241 54.057 23.5169 53.5454 23.5169C52.7236 23.5169 51.3903 23.3559 50.1964 23.3559H48.8398C47.6769 23.3559 46.3823 23.5169 45.5993 23.5169C45.1187 23.5169 44.9869 23.2241 44.9869 22.8067C44.9869 22.0307 45.6381 21.8037 46.2505 21.5841C46.9017 21.3937 47.6149 20.969 47.6149 20.0392L47.5374 5.41809C47.5064 4.61273 47.0257 3.80736 45.2117 3.58039C44.7078 3.51449 44.4287 3.29485 44.4287 2.90681Z" />
<path d="M36.8157 19.5784L36.8467 9.8041H31.7922L31.7224 18.8316C31.7224 20.1568 32.2031 20.801 33.1566 20.801C33.6992 20.801 34.0093 20.5741 34.3194 20.3471C34.8001 19.9957 34.9319 19.7687 35.3815 19.7687C35.6916 19.7687 35.8234 20.025 35.8234 20.2519C35.8234 21.8993 33.9086 23.9273 31.5209 23.9273C29.606 23.9273 27.73 22.9902 27.73 19.571L27.761 9.79678H26.7377C25.6756 9.79678 25.4043 9.60642 25.4043 8.99141C25.4043 8.41301 25.5748 8.18604 26.257 7.89318C27.2106 7.47585 27.7222 7.11709 28.2726 6.31173C29.5053 4.5692 29.4665 2.86328 31.0402 2.86328C31.5519 2.86328 31.7612 3.15614 31.7612 3.53686L31.7302 7.40996H34.6373C35.9009 7.40996 36.6529 7.34406 37.3661 6.31173C38.5987 4.5692 38.5599 2.86328 40.1336 2.86328C40.5755 2.86328 40.8546 3.11953 40.8546 3.53686L40.8236 7.40996H44.3742C44.9168 7.40996 45.2269 7.54174 45.2269 8.21533C45.2269 8.83033 45.0874 9.79678 44.0331 9.79678H40.8546L40.8236 18.8242C40.8236 20.1494 41.3042 20.7937 42.2268 20.7937C42.7694 20.7937 43.0795 20.5668 43.4206 20.3105C43.9013 19.9225 44.0331 19.7614 44.4439 19.7614C44.785 19.7614 44.9246 20.0176 44.9246 20.2446C44.9246 21.892 42.9787 23.92 40.7616 23.92C38.6917 23.9347 36.8157 22.9975 36.8157 19.5784Z" />
</g>
<defs>
<clipPath id="clip0">
<rect width="170.667" height="24" />
</clipPath>
</defs>
</svg>
