<svg width="171" height="24" viewBox="0 0 171 24" fill="currentColor" xmlns="http://www.w3.org/2000/svg">
<g clip-path="url(#clip0)">
<path d="M24.5134 11.037H32.7273V2.56641H35.615V21.7536H32.7273V13.7322H24.5134V21.7536H21.5615V2.56641H24.5134V11.037Z" />
<path d="M41.0059 15.7221C41.0059 16.9413 41.3267 17.9039 41.9684 18.6098C42.6101 19.3157 43.5085 19.7007 44.5994 19.7007C45.6904 19.7007 46.5888 19.3798 47.2305 18.674C47.8722 17.9681 48.193 17.0055 48.193 15.8504C48.193 14.6953 47.8722 13.7328 47.2305 13.0269C46.5888 12.321 45.6904 11.936 44.5994 11.936C43.5085 11.936 42.6743 12.321 42.0326 13.0269C41.3267 13.6686 41.0059 14.567 41.0059 15.7221ZM38.1182 15.6579C38.1182 13.9253 38.7599 12.4494 39.9791 11.2301C41.1984 10.0109 42.7385 9.36914 44.5353 9.36914C46.3321 9.36914 47.8722 10.0109 49.1556 11.2301C50.3748 12.4494 51.0166 13.9895 51.0166 15.7863C51.0166 17.583 50.3748 19.1232 49.1556 20.3424C47.8722 21.5617 46.3321 22.1392 44.5353 22.1392C42.7385 22.1392 41.1984 21.4975 39.9791 20.2782C38.7599 19.059 38.1182 17.5189 38.1182 15.6579Z" />
<path d="M56.2779 9.68945V16.6199C56.2779 18.6092 57.048 19.636 58.6522 19.636C60.2565 19.636 61.0266 18.6092 61.0266 16.6199V9.68945H63.8501V16.6841C63.8501 17.6467 63.7218 18.4809 63.4651 19.1868C63.2084 19.8285 62.8234 20.406 62.2458 20.9194C61.2833 21.7536 60.1282 22.1386 58.6522 22.1386C57.1763 22.1386 56.0212 21.7536 55.0587 20.9194C54.4811 20.406 54.0961 19.8285 53.8394 19.1868C53.5827 18.6092 53.5186 17.775 53.5186 16.6841V9.68945H56.2779Z" />
<path d="M74.1817 11.7432L71.8715 12.9624C71.4865 12.1924 71.0373 11.8715 70.5239 11.8715C70.2673 11.8715 70.0747 11.9357 69.8822 12.1282C69.6897 12.3207 69.6255 12.5132 69.6255 12.7699C69.6255 13.2191 70.1389 13.6683 71.2298 14.1175C72.7058 14.7592 73.7325 15.3368 74.2459 15.8501C74.7592 16.3635 75.0159 17.1336 75.0159 18.032C75.0159 19.187 74.5667 20.1496 73.7325 20.9838C72.8983 21.7539 71.8715 22.0747 70.7165 22.0747C68.663 22.0747 67.2512 21.1122 66.417 19.1229L68.7913 18.032C69.1122 18.6095 69.3689 18.9945 69.5614 19.1229C69.8822 19.4437 70.3314 19.5721 70.7806 19.5721C71.7432 19.5721 72.1924 19.1229 72.1924 18.2886C72.1924 17.7753 71.8074 17.3261 71.1015 16.8769C70.8448 16.7485 70.5239 16.6202 70.2673 16.4919C70.0106 16.3635 69.6897 16.2352 69.433 16.1068C68.5988 15.7218 68.0213 15.3368 67.7004 14.8876C67.2512 14.3742 67.0587 13.7325 67.0587 12.9624C67.0587 11.9357 67.4437 11.0373 68.1496 10.3314C68.8555 9.62554 69.7539 9.30469 70.8448 9.30469C72.2566 9.36886 73.4116 10.1389 74.1817 11.7432Z" />
<path d="M86.1824 14.1174C85.7973 12.6415 84.8348 11.8714 83.3588 11.8714C83.038 11.8714 82.7171 11.9356 82.3963 11.9997C82.0754 12.1281 81.8187 12.2564 81.562 12.4489C81.3054 12.6415 81.1128 12.8981 80.9203 13.1548C80.7278 13.4115 80.5995 13.7324 80.5353 14.1174H86.1824ZM89.0059 16.4276H80.3428C80.4069 17.3901 80.7278 18.2243 81.3053 18.8019C81.8829 19.3794 82.5888 19.7003 83.4872 19.7003C84.1931 19.7003 84.7706 19.5078 85.2198 19.1869C85.669 18.8661 86.1824 18.2243 86.7599 17.3259L89.1342 18.6735C88.7492 19.3153 88.3642 19.8286 87.9791 20.2778C87.5941 20.727 87.1449 21.112 86.6957 21.3687C86.2465 21.6254 85.7332 21.8821 85.2198 22.0104C84.7064 22.1388 84.1289 22.203 83.4872 22.203C81.6904 22.203 80.2144 21.6254 79.1235 20.4703C78.0326 19.3153 77.4551 17.7751 77.4551 15.85C77.4551 13.9249 77.9684 12.3848 79.0594 11.2297C80.1503 10.0746 81.562 9.49707 83.2947 9.49707C85.0914 9.49707 86.5032 10.0746 87.5299 11.2297C88.5567 12.3848 89.0701 13.9249 89.0701 15.9142L89.0059 16.4276Z" />
<path d="M106.46 15.7218C106.46 16.8769 106.781 17.8394 107.423 18.5453C108.065 19.2512 108.835 19.6362 109.861 19.6362C110.888 19.6362 111.722 19.2512 112.364 18.5453C113.006 17.8394 113.327 16.8769 113.327 15.7218C113.327 14.5667 113.006 13.6683 112.364 12.8983C111.722 12.1924 110.888 11.8074 109.861 11.8074C108.899 11.8074 108.129 12.1924 107.423 12.8983C106.781 13.7325 106.46 14.6309 106.46 15.7218ZM113.134 9.68971H115.958V21.7539H113.134V20.4705C111.979 21.5614 110.76 22.0747 109.412 22.0747C107.744 22.0747 106.332 21.4972 105.241 20.2779C104.15 19.0587 103.637 17.5186 103.637 15.6576C103.637 13.8608 104.15 12.3207 105.241 11.1015C106.332 9.88223 107.68 9.30469 109.284 9.30469C110.696 9.30469 111.979 9.88223 113.07 11.0373V9.68971H113.134Z" />
<path d="M121.861 2.56641V21.8177H119.102V2.56641H121.861Z" />
<path d="M127.893 2.56641V21.8177H125.069V2.56641H127.893Z" />
<path d="M139.315 11.2937H140.406C143.037 11.2937 144.385 10.2669 144.385 8.21347C144.385 6.22416 143.037 5.26159 140.278 5.26159H139.315V11.2937ZM139.315 13.9889V21.7536H136.428V2.56641H139.7C141.305 2.56641 142.524 2.69475 143.358 2.88726C144.192 3.07978 144.898 3.52897 145.54 4.17068C146.631 5.26159 147.208 6.60919 147.208 8.21347C147.208 9.94609 146.631 11.3579 145.476 12.3846C144.321 13.4113 142.717 13.9247 140.727 13.9247L139.315 13.9889Z" />
<path d="M149.583 9.69H152.406V10.7809C152.92 10.2675 153.369 9.88251 153.754 9.69C154.139 9.49748 154.652 9.36914 155.166 9.36914C155.871 9.36914 156.642 9.62583 157.476 10.075L156.192 12.6419C155.679 12.2568 155.166 12.0643 154.652 12.0643C153.112 12.0643 152.342 13.2194 152.342 15.5296V21.8183H149.519L149.583 9.69Z" />
<path d="M161.198 15.7221C161.198 16.9413 161.519 17.9039 162.161 18.6098C162.803 19.3157 163.701 19.7007 164.792 19.7007C165.883 19.7007 166.781 19.3798 167.423 18.674C168.065 17.9681 168.385 17.0055 168.385 15.8504C168.385 14.6953 168.065 13.7328 167.423 13.0269C166.781 12.321 165.883 11.936 164.792 11.936C163.701 11.936 162.867 12.321 162.225 13.0269C161.519 13.6686 161.198 14.567 161.198 15.7221ZM158.311 15.6579C158.311 13.9253 158.952 12.4494 160.172 11.2301C161.391 10.0109 162.931 9.36914 164.728 9.36914C166.524 9.36914 168.065 10.0109 169.348 11.2301C170.567 12.4494 171.209 13.9895 171.209 15.7863C171.209 17.583 170.567 19.1232 169.348 20.3424C168.065 21.5617 166.524 22.1392 164.728 22.1392C162.931 22.1392 161.391 21.4975 160.172 20.2782C158.952 19.059 158.311 17.5189 158.311 15.6579Z" />
<path d="M97.9888 11.8718H98.053H98.1172C98.2455 11.8718 98.3738 11.8718 98.5022 11.8718C99.5289 11.936 100.556 12.1927 101.454 12.706V10.2034C100.363 9.62582 99.2722 9.36914 98.053 9.36914C96.192 9.36914 94.6519 10.0109 93.3685 11.2301C92.0851 12.4494 91.4434 13.9895 91.4434 15.7863C91.4434 17.583 92.0851 19.1232 93.3043 20.3424C94.5877 21.5617 96.1278 22.1392 97.9888 22.1392C99.1439 22.1392 100.235 21.8183 101.39 21.2408V18.7381C100.427 19.2515 99.4006 19.5082 98.438 19.5723C98.2455 19.5723 98.053 19.6365 97.8605 19.6365C96.8337 19.6365 95.9353 19.2515 95.2936 18.5456C94.6519 17.8397 94.2669 16.8772 94.2669 15.7221C94.2669 14.6312 94.5877 13.6686 95.2936 12.9627C96.1279 12.2568 96.9621 11.8718 97.9888 11.8718Z" />
<path d="M0 4.42781V19.9572L7.57219 24V21.8182V19.4438V5.06952V2.69519V0L0 4.42781Z" />
<path d="M12.8983 21.7536H9.75391V19.9568H11.1015L11.1657 4.3632H9.75391V2.56641H12.9625L12.8983 21.7536Z" />
</g>
<defs>
<clipPath id="clip0">
<rect width="171" height="24" />
</clipPath>
</defs>
</svg>
