<svg width="98" height="32" viewBox="0 0 98 32" fill="currentColor" xmlns="http://www.w3.org/2000/svg">
<path d="M12.069 8.60495H7.04888V24.1553H5.00978V8.60495H0V6.75906H12.069V8.60495ZM19.9908 11.7343L14.2772 26.1426C13.2593 28.7131 11.8275 30 9.9816 30C9.46406 30 9.03278 29.9482 8.6843 29.8413V28.0575C9.11213 28.2024 9.50546 28.2749 9.86084 28.2749C10.8649 28.2749 11.617 27.678 12.1173 26.4807L13.111 24.1277L8.25992 11.7343H10.4681L13.8286 21.2915C13.87 21.4123 13.9528 21.7297 14.084 22.2369H14.1564C14.1978 22.0437 14.2772 21.7366 14.3979 21.3157L17.9275 11.7343H19.9908ZM23.2444 22.3611H23.1961V29.8689H21.2053V11.7343H23.1961V13.9183H23.2444C24.2243 12.2691 25.6527 11.4445 27.54 11.4445C29.1409 11.4445 30.3899 12 31.2869 13.111C32.184 14.222 32.6325 15.7125 32.6325 17.5825C32.6325 19.6596 32.1288 21.3261 31.1179 22.575C30.107 23.824 28.7234 24.4485 26.9707 24.4485C25.3594 24.4451 24.1173 23.7516 23.2444 22.3611ZM23.1961 17.3514V19.0868C23.1961 20.115 23.5308 20.9845 24.1967 21.7021C24.8626 22.4198 25.7113 22.7752 26.7395 22.7752C27.9436 22.7752 28.889 22.3128 29.5722 21.3916C30.2553 20.4704 30.5969 19.1869 30.5969 17.548C30.5969 16.1645 30.276 15.0811 29.6377 14.2979C28.9994 13.5147 28.1334 13.1213 27.0431 13.1213C25.8873 13.1213 24.9557 13.525 24.2519 14.3289C23.548 15.1294 23.1961 16.1369 23.1961 17.3514ZM44.7016 18.4416H35.931C35.962 19.8252 36.3347 20.8913 37.0454 21.6435C37.7562 22.3956 38.7361 22.7717 39.9816 22.7717C41.379 22.7717 42.6659 22.3094 43.839 21.3882V23.2547C42.7487 24.0483 41.3031 24.4451 39.5089 24.4451C37.7527 24.4451 36.3761 23.8827 35.3721 22.7545C34.368 21.6262 33.8677 20.0391 33.8677 17.9931C33.8677 16.061 34.4163 14.4842 35.5101 13.2697C36.6072 12.0518 37.9666 11.4445 39.5917 11.4445C41.2168 11.4445 42.4727 11.9689 43.3629 13.0213C44.253 14.0736 44.6981 15.5331 44.6981 17.3997V18.4416H44.7016ZM42.6625 16.7545C42.6556 15.6055 42.3761 14.7119 41.8309 14.0736C41.2858 13.4353 40.5267 13.1144 39.5572 13.1144C38.6187 13.1144 37.8217 13.4491 37.1662 14.1219C36.5106 14.7947 36.107 15.6711 35.9517 16.7545H42.6625ZM46.4405 23.4514V21.05C46.6924 21.2915 46.9925 21.5124 47.3445 21.7056C47.6964 21.8988 48.0656 22.0644 48.4554 22.1955C48.8453 22.3266 49.2352 22.4336 49.6251 22.506C50.0184 22.5785 50.3807 22.6164 50.7119 22.6164C51.8574 22.6164 52.7165 22.3853 53.2823 21.9195C53.8482 21.4537 54.1311 20.7844 54.1311 19.9114C54.1311 19.4422 54.038 19.0351 53.8482 18.6866C53.6584 18.3381 53.3997 18.0207 53.065 17.7343C52.7303 17.448 52.337 17.1719 51.8815 16.9097C51.4261 16.6475 50.9362 16.3715 50.4117 16.0782C49.8562 15.7711 49.3387 15.4606 48.8591 15.1432C48.3795 14.8292 47.9586 14.4807 47.6067 14.1012C47.2513 13.7217 46.9718 13.2904 46.7683 12.8108C46.5647 12.3312 46.4646 11.7654 46.4646 11.1202C46.4646 10.3266 46.6234 9.64002 46.9408 9.05348C47.2582 8.46693 47.6757 7.9839 48.1967 7.60437C48.7142 7.22484 49.3042 6.94192 49.9667 6.75561C50.6291 6.56929 51.3054 6.47614 51.992 6.47614C53.5618 6.47614 54.7039 6.68315 55.4215 7.09373V9.3847C54.483 8.67395 53.2754 8.31857 51.8022 8.31857C51.3951 8.31857 50.9879 8.36688 50.5808 8.45658C50.1737 8.54974 49.8114 8.70155 49.494 8.91202C49.1765 9.12248 48.9178 9.3916 48.7177 9.72628C48.5175 10.0575 48.4175 10.4612 48.4175 10.9408C48.4175 11.3859 48.4934 11.7688 48.6452 12.0932C48.797 12.4175 49.0213 12.7108 49.318 12.9799C49.6147 13.2455 49.9736 13.5043 50.4014 13.7562C50.8258 14.0081 51.3157 14.2806 51.8712 14.5808C52.4405 14.8879 52.9822 15.2122 53.4928 15.5503C54.0035 15.8884 54.452 16.2645 54.835 16.6786C55.2179 17.0926 55.525 17.548 55.7493 18.0483C55.9736 18.5486 56.0874 19.1248 56.0874 19.77C56.0874 20.6256 55.9321 21.3537 55.6285 21.9471C55.3214 22.5405 54.9074 23.0236 54.3864 23.3962C53.8654 23.7688 53.2651 24.038 52.5819 24.2036C51.9022 24.3692 51.1846 24.452 50.429 24.452C50.1771 24.452 49.8666 24.4313 49.4974 24.3864C49.1282 24.3416 48.7487 24.276 48.3657 24.1932C47.9793 24.107 47.617 24.0035 47.272 23.8792C46.9235 23.7447 46.651 23.6032 46.4405 23.4514ZM66.6763 23.586C65.7205 24.1587 64.5889 24.4485 63.2812 24.4485C61.5112 24.4485 60.0794 23.8723 58.9925 22.72C57.9057 21.5676 57.3606 20.0736 57.3606 18.2381C57.3606 16.1921 57.9471 14.5497 59.1202 13.3076C60.2933 12.0656 61.8562 11.4445 63.816 11.4445C64.9063 11.4445 65.8689 11.6481 66.7039 12.0518V14.0909C65.7826 13.4422 64.7959 13.1213 63.7435 13.1213C62.4738 13.1213 61.4319 13.5768 60.621 14.4876C59.8102 15.3985 59.4031 16.5923 59.4031 18.0725C59.4031 19.5285 59.7861 20.6774 60.5486 21.5158C61.3111 22.3542 62.3393 22.7786 63.6228 22.7786C64.7062 22.7786 65.724 22.4198 66.6797 21.6987V23.586H66.6763ZM74.3738 13.7458C74.0253 13.4802 73.525 13.3456 72.8695 13.3456C72.0207 13.3456 71.31 13.7458 70.7407 14.5463C70.1714 15.3468 69.885 16.437 69.885 17.8206V24.1518H67.8942V11.7309H69.885V14.291H69.9333C70.2162 13.4181 70.6475 12.7349 71.2306 12.2484C71.8137 11.7585 72.4623 11.5135 73.1834 11.5135C73.701 11.5135 74.0978 11.5687 74.3738 11.6826V13.7458ZM76.6579 8.58079C76.3025 8.58079 75.9989 8.46003 75.747 8.21852C75.4951 7.977 75.3709 7.66993 75.3709 7.2973C75.3709 6.92467 75.4951 6.6176 75.747 6.36918C75.9989 6.12421 76.3025 6 76.6579 6C77.0201 6 77.3307 6.12421 77.586 6.36918C77.8413 6.6176 77.9689 6.92467 77.9689 7.2973C77.9689 7.65267 77.8413 7.9563 77.586 8.20817C77.3307 8.45313 77.0201 8.58079 76.6579 8.58079ZM77.6274 24.1553H75.6366V11.7343H77.6274V24.1553ZM80.8361 22.3611H80.7878V29.8689H78.797V11.7343H80.7878V13.9183H80.8361C81.816 12.2691 83.2444 11.4445 85.1317 11.4445C86.7326 11.4445 87.9816 12 88.8787 13.111C89.7757 14.222 90.2243 15.7125 90.2243 17.5825C90.2243 19.6596 89.7205 21.3261 88.7096 22.575C87.6987 23.824 86.3151 24.4485 84.5624 24.4485C82.9511 24.4451 81.709 23.7516 80.8361 22.3611ZM80.7878 17.3514V19.0868C80.7878 20.115 81.1225 20.9845 81.7884 21.7021C82.4543 22.4198 83.3031 22.7752 84.3312 22.7752C85.5354 22.7752 86.4807 22.3128 87.1639 21.3916C87.847 20.4704 88.1886 19.1869 88.1886 17.548C88.1886 16.1645 87.8677 15.0811 87.2294 14.2979C86.5911 13.5147 85.7251 13.1213 84.6349 13.1213C83.479 13.1213 82.5474 13.525 81.8436 14.3289C81.1397 15.1294 80.7878 16.1369 80.7878 17.3514ZM97.6734 24.0345C97.2041 24.2933 96.5865 24.4209 95.8171 24.4209C93.6435 24.4209 92.5532 23.2064 92.5532 20.7809V13.4319H90.4175V11.7343H92.5532V8.70155L94.544 8.0598V11.7343H97.6734V13.4319H94.544V20.429C94.544 21.2605 94.6855 21.8574 94.9684 22.2128C95.2513 22.5681 95.7205 22.7476 96.3761 22.7476C96.8764 22.7476 97.3111 22.6095 97.6734 22.3335V24.0345Z"/>
</svg>
