<svg width="78" height="56" viewBox="0 0 78 56" fill="currentColor" xmlns="http://www.w3.org/2000/svg">
<g clip-path="url(#clip0)">
<path fill-rule="evenodd" clip-rule="evenodd" d="M2.03765 4.47624C2.03765 2.57882 1.82776 2.18729 0.868706 2.06682C0.179765 1.97647 0 1.76565 0 1.25365C0 0.741647 0.359529 0.470588 1.04847 0.470588H8.02918C8.77835 0.470588 9.10777 0.741647 9.10777 1.28376C9.10777 1.82588 8.98777 1.94635 8.20894 2.06682C7.36988 2.18729 7.25035 2.57882 7.25035 4.47624V17.7882C7.25035 19.6254 7.54965 19.8965 9.28753 19.8965H11.2052C13.0028 19.8965 14.1708 19.7158 15.2193 19.1736C15.9986 18.7821 16.568 18.3304 17.7661 17.1558C18.0659 16.8546 18.3355 16.7341 18.5153 16.7341C18.6951 16.7341 18.8748 16.7944 18.9944 16.9148C19.2042 17.0654 19.2941 17.2762 19.2941 17.4569C19.2941 17.6075 19.2042 17.7882 19.0842 18.0292L16.3581 22.4565C16.0287 22.9986 15.9087 23.0588 15.5191 23.0588C15.1896 23.0588 15.0099 22.9685 14.5308 22.5167C14.1412 22.1553 13.9911 22.1252 13.3322 22.1252H1.04847C0.329412 22.1252 0 21.8541 0 21.312C0 20.8301 0.179765 20.6193 0.868706 20.5289C1.82776 20.4085 2.03718 19.9868 2.03718 18.2701V4.47624H2.03765ZM26.1139 8.03671V18.6569C26.1139 20.1191 26.3562 20.4767 27.4776 20.7454C28.0536 20.8645 28.2353 21.0734 28.2353 21.4612C28.2353 21.8489 27.9322 22.1176 27.4169 22.1176H20.1426C19.6273 22.1176 19.2941 21.8494 19.2941 21.4315C19.2941 21.0438 19.5059 20.8946 20.0518 20.7454C20.6278 20.5962 20.9915 20.3878 21.1732 20.0292C21.264 19.7906 21.3247 19.4626 21.3247 18.6569V12.6009C21.3247 11.7059 21.0518 11.288 20.4155 11.0795C20.2339 11.0499 20.1426 11.0198 20.1125 10.9901C19.8094 10.9007 19.6579 10.632 19.6579 10.3336C19.6589 10.2105 19.697 10.0906 19.7673 9.98952C19.8376 9.88843 19.9367 9.8109 20.0518 9.76706L25.4165 7.61882C25.4772 7.55906 25.5986 7.52941 25.6894 7.52941C25.9624 7.52941 26.0532 7.67859 26.1139 8.03671ZM20.3261 3.94118C20.7802 2.61741 22.7793 1.41176 24.5054 1.41176C25.6259 1.41176 26.3529 1.88235 26.3529 2.67671C26.3529 3.20612 25.9591 3.88235 25.3534 4.38259C24.4753 5.14682 23.1426 5.64706 22.1129 5.64706C20.9624 5.64706 20.2353 5.17647 20.2353 4.41176C20.2353 4.26447 20.2654 4.088 20.3261 3.94118ZM35.3487 3.05082V7.75294H39.1793C39.3614 7.75294 39.4527 7.78353 39.4527 7.90494C39.4527 7.96565 39.4527 8.05647 39.392 8.14729L38.9666 9.27012C38.8753 9.51247 38.632 9.63388 38.4193 9.63388H35.744C35.5007 9.63388 35.3793 9.72518 35.3793 10.0588V18.8871C35.3793 20.0701 35.8047 20.5558 36.808 20.5558C37.416 20.5558 38.024 20.3736 38.48 20.0099C38.936 19.6456 39.1793 19.4936 39.3614 19.4936C39.7266 19.4936 40 19.7666 40 20.1308C40 20.3736 39.848 20.6165 39.5746 20.9195C38.48 22.0424 36.7774 22.5882 34.4974 22.5882C31.9746 22.5882 30.3026 21.7082 30.3026 20.3736C30.3026 20.1915 30.3026 19.888 30.3633 19.5849C30.4847 18.7661 30.6066 17.7341 30.6066 16.6419V10.0584C30.6066 9.78541 30.424 9.63388 30.2113 9.63388H28.8739C28.448 9.63388 28.2353 9.39153 28.2353 8.96659C28.2353 8.54165 28.448 8.23859 29.1779 7.78353C30.728 6.81271 32.8259 4.68894 33.92 3.02024C34.1934 2.50447 34.4367 2.35294 34.7718 2.35294C35.1365 2.35294 35.3492 2.65647 35.3492 3.05082H35.3487ZM47.1134 3.05082V7.75294H50.944C51.1261 7.75294 51.2174 7.78353 51.2174 7.90494C51.2174 7.96565 51.2174 8.05647 51.1567 8.14729L50.7313 9.27012C50.64 9.51247 50.3967 9.63388 50.184 9.63388H47.5087C47.2654 9.63388 47.144 9.72518 47.144 10.0588V18.8871C47.144 20.0701 47.5694 20.5558 48.5727 20.5558C49.1807 20.5558 49.7887 20.3736 50.2447 20.0099C50.7007 19.6456 50.944 19.4936 51.1261 19.4936C51.4913 19.4936 51.7647 19.7666 51.7647 20.1308C51.7647 20.3736 51.6127 20.6165 51.3393 20.9195C50.2447 22.0424 48.5421 22.5882 46.2621 22.5882C43.7393 22.5882 42.0673 21.7082 42.0673 20.3736C42.0673 20.1915 42.0673 19.888 42.128 19.5849C42.2494 18.7661 42.3713 17.7341 42.3713 16.6419V10.0584C42.3713 9.78541 42.1887 9.63388 41.976 9.63388H40.6386C40.2127 9.63388 40 9.39153 40 8.96659C40 8.54165 40.2127 8.23859 40.9426 7.78353C42.4927 6.81271 44.5906 4.68894 45.6847 3.02024C45.9581 2.50447 46.2014 2.35294 46.5365 2.35294C46.9012 2.35294 47.1139 2.65647 47.1139 3.05082H47.1134ZM59.3144 0.452706V18.6174C59.3144 19.5228 59.3144 19.7341 59.4344 20.0056C59.5544 20.3374 59.9449 20.5788 60.4555 20.7294C61.0565 20.8805 61.1765 21.0315 61.1765 21.4541C61.1765 21.8461 60.9064 22.1176 60.3656 22.1176H53.5167C53.0061 22.1176 52.7059 21.8461 52.7059 21.4235C52.7059 21.0014 52.8565 20.8805 53.4268 20.7294C53.9374 20.5788 54.2678 20.3374 54.448 20.0056C54.5384 19.7341 54.568 19.432 54.568 18.5873V5.22024C54.568 4.19435 54.328 3.77176 53.6673 3.59059C53.4871 3.53035 53.3967 3.50024 53.3666 3.50024C53.0965 3.37929 52.9162 3.13788 52.9162 2.83671C52.9162 2.56471 53.0664 2.35341 53.3068 2.26306L58.6231 0.0301176C58.7134 0 58.8334 0 58.8937 0C59.1638 0 59.2541 0.090353 59.3144 0.452706ZM76.4471 13.3807L67.4212 16.3209C67.1478 16.3807 67.0565 16.4696 67.0565 16.5882C67.0565 16.7671 67.1779 17.0635 67.3299 17.4202C68.3327 19.2913 69.9435 20.3012 71.8278 20.3012C73.2866 20.3012 74.5934 19.7666 75.9002 18.5487C76.2038 18.2814 76.4169 18.1925 76.5685 18.1925C76.9332 18.1925 77.1765 18.4598 77.1765 18.816C77.1765 18.9647 77.0551 19.2616 76.9332 19.44C75.5355 21.4296 72.952 22.5882 69.9741 22.5882C65.0809 22.5882 61.6471 19.5289 61.6471 15.1624C61.6471 10.8856 65.0202 7.52941 69.4268 7.52941C71.8885 7.52941 74.016 8.53929 75.3835 10.3511C75.7804 10.892 76.1264 11.4686 76.4169 12.0734C76.6297 12.5487 76.7205 12.8165 76.7205 13.024C76.7205 13.1727 76.6297 13.3214 76.4475 13.3807H76.4471ZM65.9304 14.5882C65.9878 14.5882 66.0744 14.5572 66.1609 14.5256L70.7129 12.9035C70.9435 12.8099 71.0588 12.7162 71.0588 12.56C71.0588 12.4353 70.9435 11.9986 70.7708 11.4993C70.5976 11.0005 70.3097 10.5012 69.9638 10.064C69.4165 9.37788 68.6386 8.94118 67.8607 8.94118C66.3915 8.94118 65.4118 10.3449 65.4118 12.4353C65.4118 13.5896 65.6711 14.5882 65.9304 14.5882ZM11.7416 33.5708L12.8612 34.9981L13.9802 36.3454C14.1638 36.5464 14.2447 36.6268 14.3059 36.6268C14.4485 36.6268 14.9162 36.0433 15.3435 35.3398C16.3002 33.7915 16.8089 32.2038 16.8089 30.8565C16.8089 30.3741 16.768 30.0927 16.5849 29.8918L16.4833 29.7708C16.4294 29.702 16.4007 29.6168 16.4019 29.5294C16.4019 29.3285 16.8292 28.9266 17.2362 28.6852L17.7652 28.384C17.9078 28.3031 18.0301 28.2631 18.1111 28.2631C18.4776 28.2631 18.6405 28.7054 18.6405 29.6701C18.6405 30.1727 18.5388 30.9369 18.4165 31.5807C18.2536 32.3445 18.0908 33.088 17.8264 33.7718C17.3379 35.0786 16.9106 35.7821 15.6287 37.3906C15.5675 37.4508 15.5271 37.5515 15.4452 37.6118C15.4047 37.672 15.384 37.7125 15.384 37.7529C15.384 37.8329 15.4861 37.9939 15.6692 38.1548L17.0122 39.4414C17.1751 39.5826 17.3379 39.7228 17.5416 39.8635C17.9078 40.1252 18.0301 40.1652 18.3962 40.2659C18.7016 40.3459 18.8235 40.4466 18.8235 40.6678C18.8235 40.9492 18.5995 41.1304 18.2132 41.1304H14.2245C13.96 41.1304 13.8988 41.1101 13.7158 40.9092L13.0852 40.2659L12.9219 40.1049C12.8847 40.0827 12.8431 40.0691 12.8 40.0649C12.6776 40.0649 12.6165 40.0847 12.3727 40.2659C11.1925 41.0701 10.0729 41.4118 8.58777 41.4118C5.67765 41.4118 3.76471 39.8438 3.76471 37.4711C3.76471 35.8024 4.70118 34.5958 6.67482 33.6711C7.10212 33.4701 7.16329 33.4301 7.16329 33.3496C7.16329 33.2894 7.10212 33.1487 6.95953 32.9275C6.22682 31.7614 6.00329 31.0979 6.00329 30.1934C6.00329 28.0216 8.09929 26.3529 10.9073 26.3529C13.1868 26.3529 14.6518 27.5591 14.6518 29.4494C14.6518 30.9167 13.6344 32.2438 11.864 33.0278C11.5788 33.1487 11.5181 33.1887 11.5181 33.2692C11.5181 33.2894 11.5384 33.3294 11.5793 33.3699L11.7416 33.5708ZM7.05882 37.3167C7.05882 37.4136 7.07953 37.5304 7.07953 37.6471C7.288 38.9887 8.43294 40 9.80753 40C10.3694 40 10.9111 39.8447 11.64 39.3779C11.7233 39.3195 11.7647 39.2612 11.7647 39.2028C11.7647 39.1247 11.6814 38.9887 11.4729 38.8527C11.3901 38.736 10.8904 38.2108 10.0362 37.2386C9.574 36.7093 9.12968 36.1647 8.704 35.6056C8.55812 35.3718 8.45412 35.2941 8.37082 35.2941C8.24565 35.2941 8.12094 35.3718 7.93318 35.5468C7.32941 36.0913 7.05882 36.6165 7.05882 37.3162V37.3167ZM9.41177 29.488V29.6541C9.49318 30.3807 9.87906 31.3355 10.3666 31.896C10.4278 31.9586 10.4885 32 10.5492 32C10.6508 32 11.0776 31.7299 11.3821 31.4395C11.8494 31.024 12.2353 30.1525 12.2353 29.4673C12.2353 28.4913 11.6461 27.7647 10.8541 27.7647C10.0212 27.7647 9.41177 28.4706 9.41177 29.488ZM38.0621 35.9741C42.8489 36.9558 45.6471 39.7049 45.6471 43.3374C45.6471 47.2645 42.2758 49.8824 37.2188 49.8824H23.8024C22.9929 49.8824 22.5887 49.5878 22.5887 48.9986C22.5887 48.4424 22.7911 48.2786 23.6005 48.1478C24.2071 48.0499 24.4428 47.8532 24.6452 47.3299C24.7464 46.9369 24.7798 46.8391 24.7798 45.4974V30.7054C24.7798 28.7416 24.5774 28.2184 23.6673 28.0875C22.7911 27.9567 22.656 27.8254 22.656 27.2038C22.656 26.6475 23.0268 26.3529 23.8701 26.3529H33.0056C38.6353 26.3529 42.2762 28.5459 42.2762 31.9816C42.2762 32.9308 41.9393 33.8471 41.2988 34.4687C40.6245 35.1887 39.9167 35.4833 38.0626 35.9746L38.0621 35.9741ZM32.3332 28.2353C31.0005 28.2353 30.5882 28.5873 30.5882 29.7064V33.6405C30.5882 34.5675 30.9374 34.8235 32.3332 34.8235C34.9661 34.8235 36.2353 33.864 36.2353 31.8174C36.2353 29.6424 34.744 28.2353 32.3332 28.2353ZM32.6894 37.1765C31.0809 37.1765 30.5882 37.4753 30.5882 38.6042V46.1741C30.5882 47.6014 31.1793 48 33.2146 48C37.0231 48 39.0588 46.2734 39.0588 42.9868C39.0588 39.3012 36.6951 37.1765 32.6894 37.1765ZM53.1845 34.4221V45.728C53.1845 47.2842 53.4527 47.6649 54.6918 47.9511C55.3285 48.0781 55.5294 48.3002 55.5294 48.7134C55.5294 49.1261 55.1944 49.4118 54.6249 49.4118H46.5849C46.0155 49.4118 45.6471 49.1261 45.6471 48.6814C45.6471 48.2687 45.8814 48.1096 46.4847 47.9511C47.1209 47.792 47.5228 47.5699 47.7242 47.1887C47.8245 46.9346 47.8913 46.5854 47.8913 45.728V39.2809C47.8913 38.3285 47.5901 37.8838 46.8866 37.6616C46.6856 37.6296 46.5854 37.5981 46.5515 37.5661C46.2165 37.4711 46.0489 37.1849 46.0489 36.8678C46.0489 36.6136 46.2165 36.3595 46.4847 36.264L52.4141 33.9774C52.4809 33.9139 52.6151 33.8824 52.7153 33.8824C53.0169 33.8824 53.1176 34.0409 53.1845 34.4221ZM46.6856 30.3854C47.1751 28.768 49.328 27.2941 51.1868 27.2941C52.3939 27.2941 53.1765 27.8692 53.1765 28.84C53.1765 29.4871 52.7525 30.3139 52.1002 30.9247C51.1544 31.8593 49.7191 32.4706 48.6104 32.4706C47.3708 32.4706 46.5882 31.8955 46.5882 30.9609C46.5882 30.7812 46.6212 30.5656 46.6861 30.3854H46.6856ZM62.6005 45.1741L62.2635 45.3035C61.5228 45.5953 61.1859 45.9845 61.1859 46.3087C61.1859 46.8922 61.8259 47.0866 63.8122 47.0866C64.4184 47.0866 65.7991 47.0216 66.9101 46.9892C68.0885 46.9242 69.0315 46.8918 69.8057 46.8918C73.0047 46.8918 75.2941 48.5449 75.2941 50.8461C75.2941 54.12 71.1529 56 64.048 56C58.6946 56 55.5294 54.8659 55.5294 52.8885C55.5294 52.0781 56.2367 51.2028 57.2132 50.6842L57.9539 50.2955C58.1558 50.1656 58.3242 49.9708 58.3242 49.8739C58.3242 49.7769 58.2231 49.6795 57.92 49.5496C56.9435 49.1934 56.4047 48.5774 56.4047 47.7995C56.4047 47.4104 56.5732 46.9892 56.8089 46.6974C57.1128 46.3383 57.4922 46.0507 57.92 45.8551C58.1892 45.6278 58.6607 45.4984 59.1995 45.2386C59.5699 45.1092 59.8395 45.0122 59.9741 44.9468C60.3445 44.8174 60.5125 44.688 60.5125 44.6231C60.5125 44.5581 60.3779 44.4612 59.9068 44.3313C57.92 43.7478 56.6071 42.0951 56.6071 40.0852C56.6071 36.5845 59.9068 34.4776 65.3275 34.4776H65.6645C66.1694 34.4776 66.2706 34.4452 66.3713 34.3482C66.5059 34.2833 66.5737 34.024 66.7417 33.5704C66.9101 33.1812 66.9774 32.9544 67.0447 32.76C67.5497 31.4635 68.9647 30.5882 70.5464 30.5882C72.1628 30.5882 73.24 31.3336 73.24 32.4358C73.24 33.2461 72.7351 33.6348 71.624 33.6348C71.3209 33.6348 71.0179 33.5704 70.7487 33.5054L69.9741 33.2786C69.7718 33.1812 69.5026 33.1487 69.3012 33.1487C68.7285 33.1487 68.1897 33.6348 68.1897 34.2184C68.1897 34.4452 68.2908 34.5751 68.5934 34.64C72.0955 35.4179 73.9812 37.2005 73.9812 39.7934C73.9812 43.0673 70.5464 45.2711 65.4287 45.2711H65.1591C64.856 45.2711 64.3177 45.2391 63.5431 45.1741C63.3407 45.1741 63.1388 45.1416 63.0381 45.1416C62.9708 45.1092 62.9035 45.1092 62.8024 45.1092C62.7685 45.1092 62.7351 45.1092 62.6 45.1741H62.6005ZM64.7059 35.2941C62.7624 35.2941 61.6471 36.6979 61.6471 39.0908C61.6471 41.4198 62.7304 42.8235 64.6739 42.8235C66.5859 42.8235 67.7647 41.4198 67.7647 39.1544C67.7647 36.7619 66.5859 35.2941 64.7059 35.2941ZM64.1642 49.2329H63.8419C63.0353 49.2329 62.4871 49.1967 60.6165 48.9412C59.6489 49.7802 59.2941 50.3638 59.2941 51.1299C59.2941 52.7351 61.1002 53.6471 64.2287 53.6471C67.5831 53.6471 69.6471 52.5525 69.6471 50.8014C69.6471 49.5976 68.9694 49.16 67.2282 49.16C67.0668 49.16 66.9379 49.16 66.7445 49.1967L64.1642 49.2329Z" />
</g>
<defs>
<clipPath id="clip0">
<rect width="77.1765" height="56" />
</clipPath>
</defs>
</svg>
