<svg width="157" height="24" viewBox="0 0 157 24" fill="currentColor" xmlns="http://www.w3.org/2000/svg">
<g clip-path="url(#clip0)">
<path d="M52.0873 18.2185C52.5333 17.7948 53.0461 16.9699 52.9792 15.6989C52.8454 12.9564 50.1698 12.6443 48.3861 12.4213C46.1564 12.1761 45.7996 11.9308 45.7773 11.2619C45.7773 10.4146 46.9368 9.99097 47.9847 10.0356C49.9691 10.1025 51.7529 10.7714 51.7529 10.7714L52.4664 8.56398C52.3772 8.54168 50.3705 7.91737 48.0516 7.85048C45.6436 7.78359 43.4362 8.89843 43.5031 11.3065C43.5477 14.2051 46.3125 14.5172 48.1185 14.7179C50.1698 14.9632 50.7272 15.1861 50.7718 15.8104C50.7941 16.2787 50.7718 17.5273 47.8732 17.3043C45.9557 17.1482 44.2389 16.2787 44.2166 16.2564L43.2578 18.2631C43.3693 18.3077 45.4652 19.3333 47.9178 19.4002C49.1665 19.4448 50.9502 19.3779 52.0873 18.2185ZM60.4208 19.3779C62.6058 19.3779 64.7686 18.486 64.7686 18.486L64.1889 16.5016C64.1889 16.5016 62.2714 17.2597 60.5099 17.2597C58.258 17.2597 57.1208 15.8327 57.1208 14.4726H65.3706L65.3712 13.1524C65.3761 12.7446 65.3307 7.85048 60.3093 7.85048C55.6551 7.85048 54.7621 11.8711 54.7357 13.5059L54.7351 13.5808C54.7351 15.0746 55.3148 19.3779 60.4208 19.3779ZM63.1187 12.4882H57.1431C57.1431 12.4882 57.4107 10.0579 60.3093 10.0579C63.2747 10.0579 63.1187 12.4882 63.1187 12.4882ZM70.471 19.1995V12.2206C70.471 11.4403 71.4744 10.3923 72.4777 10.3923H76.3574V8.05115H72.8122C70.8055 8.05115 70.2926 9.87949 70.2926 10.2139L70.1589 8.05115H67.9738V19.1995H70.471ZM85.1367 19.1995L88.6819 8.05115H86.2962L83.353 17.0368L80.722 8.05115H78.2024L81.5915 19.1995H85.1367ZM95.6775 19.3779C97.8626 19.3779 100.025 18.486 100.025 18.486L99.4457 16.5016C99.4457 16.5016 97.5282 17.2597 95.7667 17.2597C93.5147 17.2597 92.3776 15.8327 92.3776 14.4726H100.627L100.628 13.1524C100.633 12.7446 100.587 7.85048 95.566 7.85048C90.9118 7.85048 90.0188 11.8711 89.9925 13.5059L89.9918 13.5808C89.9918 15.0746 90.5716 19.3779 95.6775 19.3779ZM98.3754 12.4882H92.3999C92.3999 12.4882 92.6675 10.0579 95.566 10.0579C98.5315 10.0579 98.3754 12.4882 98.3754 12.4882ZM105.728 19.1995V12.2206C105.728 11.4403 106.731 10.3923 107.735 10.3923H111.614V8.05115H108.069C106.062 8.05115 105.549 9.87949 105.549 10.2139L105.416 8.05115H103.231V19.1995H105.728ZM122.177 19.1995V16.8584H117.584V3.5918H111.631V5.6431H115.198V19.1995H122.177ZM129.374 19.3779C131.559 19.3779 133.721 18.486 133.721 18.486L133.142 16.5016C133.142 16.5016 131.224 17.2597 129.463 17.2597C127.211 17.2597 126.074 15.8327 126.074 14.4726H134.323L134.324 13.1524C134.329 12.7446 134.283 7.85048 129.262 7.85048C124.608 7.85048 123.715 11.8711 123.688 13.5059L123.688 13.5808C123.688 15.0746 124.268 19.3779 129.374 19.3779ZM132.071 12.4882H126.096C126.096 12.4882 126.363 10.0579 129.262 10.0579C132.228 10.0579 132.071 12.4882 132.071 12.4882ZM144.842 18.2185C145.288 17.7948 145.801 16.9699 145.734 15.6989C145.6 12.9564 142.924 12.6443 141.141 12.4213C138.911 12.1761 138.554 11.9308 138.532 11.2619C138.532 10.4146 139.691 9.99097 140.739 10.0356C142.724 10.1025 144.507 10.7714 144.507 10.7714L145.221 8.56398C145.132 8.54168 143.125 7.91737 140.806 7.85048C138.398 7.78359 136.191 8.89843 136.258 11.3065C136.302 14.2051 139.067 14.5172 140.873 14.7179C142.924 14.9632 143.482 15.1861 143.526 15.8104C143.549 16.2787 143.526 17.5273 140.628 17.3043C138.71 17.1482 136.993 16.2787 136.971 16.2564L136.012 18.2631C136.124 18.3077 138.22 19.3333 140.672 19.4002C141.921 19.4448 143.705 19.3779 144.842 18.2185ZM156.291 18.2185C156.737 17.7948 157.25 16.9699 157.183 15.6989C157.049 12.9564 154.374 12.6443 152.59 12.4213C150.36 12.1761 150.004 11.9308 149.981 11.2619C149.981 10.4146 151.141 9.99097 152.189 10.0356C154.173 10.1025 155.957 10.7714 155.957 10.7714L156.67 8.56398C156.581 8.54168 154.574 7.91737 152.256 7.85048C149.848 7.78359 147.64 8.89843 147.707 11.3065C147.752 14.2051 150.516 14.5172 152.322 14.7179C154.374 14.9632 154.931 15.1861 154.976 15.8104C154.998 16.2787 154.976 17.5273 152.077 17.3043C150.16 17.1482 148.443 16.2787 148.421 16.2564L147.462 18.2631C147.573 18.3077 149.669 19.3333 152.122 19.4002C153.37 19.4448 155.154 19.3779 156.291 18.2185Z" />
<path d="M9.46043 5.57398L11.1484 0.619141H0V5.57398H9.46043ZM29.1097 5.57398V0.619141H16.4691L14.8645 5.57398H29.1097ZM6.56636 14.2449L8.05161 9.29011H0V14.2449H6.56636ZM29.1097 14.2449V9.29011H13.2723L11.7677 14.2449H29.1097ZM3.48387 23.5353L4.95484 18.5804H0V23.5353H3.48387ZM29.1097 23.5353V18.5804H10.2918L8.67097 23.5353H29.1097Z" />
</g>
<defs>
<clipPath id="clip0">
<rect width="157" height="24" />
</clipPath>
</defs>
</svg>
